<svg width="380" height="121" viewBox="0 0 380 121" fill="none" xmlns="http://www.w3.org/2000/svg">
<path d="M24.8818 12H12V74.9927H24.8818V12Z" fill="#E34D25"/>
<path fill-rule="evenodd" clip-rule="evenodd" d="M69.174 74.9929H56.7538V47.3763C56.7548 43.0114 57.2024 38.3 53.5334 37.5789C52.453 37.4085 51.3464 37.593 50.3796 38.1047C47.465 39.6079 47.4875 42.7185 47.4875 47.1782V74.9929H35.1331C35.1387 60.4681 35.697 44.9443 34.7389 31.0683C38.8781 31.0908 43.0181 31.1131 47.1591 31.135C47.2679 32.5809 47.3774 34.0274 47.4875 35.4746C47.5091 35.4304 47.5316 35.3863 47.5532 35.3431C49.2338 33.6437 49.8841 31.9969 52.3501 30.9378C58.0319 28.4957 65.0771 30.7885 67.4652 34.6202C69.4471 37.7983 69.174 43.0712 69.174 48.2962V74.9929Z" fill="#E34D25"/>
<path fill-rule="evenodd" clip-rule="evenodd" d="M112.153 74.9929H99.7987V47.3763C99.7996 43.0687 100.197 38.2906 96.5782 37.5789C95.6454 37.4482 94.6946 37.5614 93.8185 37.9075C90.5014 39.1582 90.4667 42.5729 90.4676 47.1782V74.9929H78.1122V45.6009C78.1122 41.3749 78.6977 34.5773 77.7181 31.1353L77.7838 31.0686H90.1382C90.2696 32.5596 90.401 34.0502 90.5324 35.5406V35.4091C92.0844 33.5773 93.126 31.8807 95.5273 30.8714C101.414 28.3984 108.293 30.9897 110.642 34.8824C112.496 37.9545 112.153 43.2133 112.153 48.165V74.9929Z" fill="#E34D25"/>
<path fill-rule="evenodd" clip-rule="evenodd" d="M228.472 12.0002H240.826C240.805 15.4845 240.783 18.9694 240.761 22.4549H228.472V12.0002Z" fill="#EFA523"/>
<path fill-rule="evenodd" clip-rule="evenodd" d="M365.229 43.1677H356.817C355.987 43.1677 354.214 43.4259 353.663 43.0363C354.544 39.921 352.82 37.2245 350.771 36.6583C347.813 35.8406 344.031 37.9277 344.922 40.9979C345.701 43.6804 349.07 45.208 351.297 46.5215C357.432 50.14 369.094 54.1792 366.674 65.3277C366.411 66.6916 365.922 68.0023 365.229 69.2063C363.085 72.6952 359.098 74.2491 354.386 75.1899L350.508 75.5194C348.007 75.8324 345.471 75.6989 343.016 75.1251C336.824 73.5721 332.034 68.8345 333.226 60.4613H345.186C345.113 64.0921 345.881 67.4721 348.602 68.2861C352.033 69.3124 356.372 66.2055 354.977 62.6969C353.332 58.561 347.244 56.5442 343.476 54.3463C341.463 53.2005 339.511 51.9494 337.628 50.5982C334.982 48.6509 332.456 45.3864 333.423 40.3407C333.729 39.3107 334.035 38.2804 334.342 37.2498C337.246 30.6747 348.3 28.0355 357.277 30.8719C362.653 32.5694 365.32 36.0912 365.229 43.1677Z" fill="#EFA523"/>
<path fill-rule="evenodd" clip-rule="evenodd" d="M219.929 74.9929H207.574V47.3106C207.574 43.0631 207.999 38.2756 204.419 37.5789C203.438 37.4379 202.436 37.5745 201.528 37.9733C198.306 39.3281 198.242 42.6284 198.242 47.2449V74.9929H185.888V47.3764C185.889 43.0527 186.308 38.285 182.667 37.5789C181.685 37.4379 180.684 37.5745 179.775 37.9733C176.589 39.3131 176.555 42.6884 176.555 47.2449V74.9929H164.2C164.206 60.4306 164.367 45.0946 163.873 31.0683H176.227C176.336 32.5593 176.445 34.05 176.555 35.5403L176.687 35.4746C178.21 30.8984 186.036 28.6047 191.801 30.8712C195.085 32.1621 195.908 33.87 197.651 36.6576H197.717C200.135 29.3239 213.18 27.4695 217.891 34.0935C220.159 37.281 219.929 42.4666 219.929 48.0333V74.9929Z" fill="#EFA523"/>
<path fill-rule="evenodd" clip-rule="evenodd" d="M283.543 74.9929H271.123V47.3763C271.123 43.0198 271.57 38.2906 267.902 37.5789C266.822 37.4094 265.715 37.5939 264.748 38.1047C261.83 39.6079 261.856 42.7156 261.856 47.1782V74.9929H249.501C249.508 60.4333 249.801 44.9903 249.107 31.0683C253.247 31.0908 257.387 31.113 261.527 31.135C261.512 31.9471 261.595 35.0295 261.922 35.4745V35.3431C263.607 33.6399 264.246 31.9997 266.719 30.9378C272.396 28.4976 279.445 30.7969 281.834 34.6201C283.818 37.7946 283.543 43.0787 283.543 48.2962L283.543 74.9929Z" fill="#EFA523"/>
<path fill-rule="evenodd" clip-rule="evenodd" d="M228.472 31.0689C232.59 31.0905 236.709 31.1124 240.826 31.1346V74.9934H228.472V31.0689Z" fill="#EFA523"/>
<path fill-rule="evenodd" clip-rule="evenodd" d="M325.93 68.2862V12.0001H313.904V34.6202H313.838C312.186 31.0617 304.394 28.5801 299.184 30.6082C295.754 31.9442 293.922 34.7826 292.809 38.433C290.722 45.2747 290.544 62.8247 293.204 69.0749C294.04 71.1446 295.513 72.8948 297.408 74.0727C299.204 75.0853 301.199 75.6923 303.254 75.8513C305.309 76.0102 307.374 75.7172 309.304 74.9928C311.407 74.0763 312.394 72.5423 313.772 70.916V70.7845C313.926 72.1656 314.08 73.5464 314.232 74.9269H326.258C326.149 72.714 326.039 70.5006 325.93 68.2862ZM313.838 52.7679C313.817 54.6307 313.795 56.4938 313.772 58.3572C313.323 61.4255 313.839 64.306 312.589 66.4449C312.255 67.0098 311.798 67.4923 311.252 67.8565C310.706 68.2207 310.085 68.4574 309.435 68.5489C303.558 69.592 304.385 63.7944 303.718 59.4088C303.674 57.4586 303.63 55.5079 303.586 53.5567C303.587 48.5016 303.227 42.1452 305.491 39.2225C306.194 38.3163 307.071 38.3239 308.252 37.8423C308.92 37.7772 309.594 37.8679 310.221 38.1074C310.848 38.3469 311.411 38.7286 311.866 39.2225C314.128 42.1217 313.838 47.6069 313.838 52.7679Z" fill="#EFA523"/>
<path fill-rule="evenodd" clip-rule="evenodd" d="M133.182 30.4472C120.296 32.9607 119.285 44.8931 120.393 58.6048C120.878 64.6223 122.327 70.4519 126.424 73.2094C131.987 76.9519 150.627 79.4672 154.835 66.6878C157.36 59.0255 158.365 38.7556 150.483 33.1503C146.292 30.1702 139.3 29.254 133.182 30.4472Z" fill="#E34D25"/>
<path d="M15.2259 101.361V109.602H12.2607V87.5709H18.7604C19.989 87.5482 21.214 87.7114 22.3938 88.055C23.3338 88.3288 24.2056 88.7978 24.9523 89.4312C25.622 90.0168 26.1412 90.7548 26.4661 91.5832C26.8093 92.481 26.9788 93.436 26.9656 94.3972C26.9771 95.3615 26.7942 96.3183 26.4277 97.2102C26.0749 98.0525 25.5364 98.8042 24.8524 99.4089C24.1007 100.058 23.2249 100.547 22.2783 100.847C21.1411 101.207 19.9531 101.38 18.7604 101.361H15.2259ZM15.2259 98.9936H18.7603C19.5241 99.0069 20.2848 98.8927 21.011 98.6555C21.616 98.4572 22.1733 98.1352 22.6476 97.7102C23.086 97.3079 23.4275 96.8113 23.6464 96.2578C23.8766 95.6649 23.9912 95.0335 23.9842 94.3975C24.018 93.7877 23.9195 93.1778 23.6954 92.6097C23.4712 92.0416 23.1267 91.5289 22.6857 91.1067C21.5704 90.2361 20.1703 89.8139 18.7599 89.923H15.2259V98.9936Z" fill="#333333"/>
<path d="M36.3225 93.7819C37.3769 93.7667 38.4238 93.9599 39.4034 94.3504C40.2911 94.71 41.0884 95.2614 41.7383 95.9653C42.3991 96.6975 42.9014 97.5584 43.2137 98.4942C43.9003 100.652 43.9003 102.971 43.2137 105.129C42.9003 106.062 42.398 106.92 41.7383 107.649C41.0897 108.353 40.2919 108.902 39.4034 109.257C37.4175 110.005 35.2275 110.005 33.2417 109.257C32.3514 108.901 31.5511 108.352 30.8986 107.649C30.2337 106.921 29.7261 106.063 29.4076 105.129C28.7113 102.972 28.7113 100.651 29.4076 98.4942C29.725 97.5573 30.2326 96.6963 30.8986 95.9653C31.5524 95.2623 32.3522 94.711 33.2417 94.3504C34.2212 93.9597 35.2682 93.7665 36.3225 93.7819ZM36.3225 107.68C36.979 107.726 37.6366 107.609 38.237 107.339C38.8374 107.07 39.3621 106.656 39.7644 106.135C40.5093 104.816 40.9007 103.326 40.9007 101.811C40.9007 100.296 40.5093 98.8064 39.7644 97.4871C39.3635 96.964 38.8393 96.5484 38.2387 96.2773C37.6381 96.0063 36.9798 95.8883 36.3225 95.9339C35.6252 95.9177 34.9328 96.0541 34.2937 96.3337C33.7277 96.5944 33.2347 96.9905 32.858 97.4871C32.4492 98.0401 32.1565 98.6701 31.9975 99.3393C31.7983 100.152 31.7025 100.986 31.7124 101.822C31.702 102.656 31.7978 103.488 31.9975 104.298C32.1563 104.963 32.4491 105.588 32.858 106.135C33.2363 106.628 33.7291 107.021 34.2937 107.281C34.9327 107.561 35.6252 107.697 36.3225 107.68Z" fill="#333333"/>
<path d="M45.3571 94.0276H47.5087C47.7071 94.0193 47.9025 94.0792 48.0623 94.1973C48.1968 94.2986 48.2981 94.4378 48.3532 94.5971L51.3342 104.621C51.4166 104.99 51.4927 105.346 51.5651 105.69C51.6375 106.033 51.698 106.379 51.7493 106.727C51.8308 106.379 51.9234 106.033 52.026 105.69C52.1287 105.347 52.2358 104.99 52.3485 104.621L55.6365 94.5357C55.6865 94.3836 55.7802 94.2497 55.906 94.1507C56.0446 94.045 56.2156 93.9909 56.3898 93.9976H57.5728C57.754 93.9905 57.9324 94.0444 58.0795 94.1507C58.2086 94.248 58.3051 94.3823 58.3562 94.5357L61.568 104.621C61.6799 104.98 61.7798 105.334 61.8677 105.682C61.9539 106.03 62.0391 106.374 62.1211 106.712C62.1724 106.374 62.239 106.021 62.3209 105.651C62.4028 105.282 62.4898 104.938 62.582 104.621L65.6244 94.597C65.6755 94.4331 65.778 94.29 65.9167 94.1889C66.0631 94.0805 66.2413 94.0238 66.4234 94.0275H68.4825L63.4428 109.602H61.2762C61.0095 109.602 60.825 109.428 60.7226 109.079L57.2807 98.5168C57.1995 98.283 57.1328 98.0445 57.0809 97.8025C57.0295 97.5614 56.9785 97.323 56.9278 97.0873C56.8765 97.323 56.8252 97.564 56.7739 97.8103C56.7227 98.0551 56.656 98.2964 56.5742 98.5328L53.0865 109.08C53.0588 109.227 52.9807 109.36 52.8655 109.455C52.7504 109.55 52.6055 109.603 52.456 109.602H50.3971L45.3571 94.0276Z" fill="#333333"/>
<path d="M77.3943 93.7819C78.2766 93.7727 79.1527 93.9317 79.9756 94.2504C80.7455 94.5505 81.4423 95.012 82.0192 95.6039C82.6152 96.2294 83.0735 96.9731 83.3644 97.7869C83.701 98.7367 83.8649 99.7391 83.8482 100.747C83.8736 101.041 83.8261 101.336 83.7098 101.608C83.6485 101.685 83.5682 101.746 83.4768 101.783C83.3853 101.821 83.2857 101.834 83.1875 101.822H72.8307C72.833 102.694 72.9678 103.56 73.2303 104.39C73.4429 105.06 73.7879 105.679 74.2447 106.212C74.664 106.692 75.1905 107.066 75.7814 107.303C76.4173 107.552 77.0955 107.675 77.7781 107.665C78.3786 107.677 78.9773 107.597 79.5532 107.426C79.9941 107.29 80.4232 107.118 80.8361 106.912C81.1444 106.756 81.4444 106.584 81.735 106.397C81.9157 106.26 82.1315 106.177 82.3573 106.158C82.4593 106.154 82.5609 106.175 82.6523 106.221C82.7437 106.267 82.8219 106.335 82.8796 106.42L83.6484 107.419C83.302 107.836 82.8923 108.197 82.4343 108.487C81.959 108.791 81.4513 109.042 80.9204 109.233C80.379 109.429 79.8211 109.575 79.2535 109.671C78.6902 109.768 78.1197 109.817 77.5482 109.817C76.5311 109.828 75.5215 109.643 74.5746 109.271C73.6832 108.918 72.8807 108.372 72.2241 107.673C71.5335 106.921 71.0075 106.033 70.68 105.066C70.2925 103.918 70.1053 102.711 70.1264 101.499C70.1183 100.464 70.2872 99.4342 70.6259 98.4554C70.9364 97.5503 71.425 96.7167 72.0627 96.0035C72.7004 95.3023 73.4812 94.7464 74.3523 94.3733C75.3143 93.967 76.3502 93.7656 77.3943 93.7819ZM77.4556 95.7955C76.8851 95.7642 76.3142 95.8497 75.7779 96.0467C75.2415 96.2438 74.751 96.5483 74.3363 96.9416C73.5281 97.8146 73.0312 98.9307 72.9233 100.116H81.3896C81.3962 99.524 81.3081 98.9349 81.1285 98.371C80.9679 97.8674 80.7063 97.4019 80.3596 97.003C80.0194 96.6169 79.597 96.3121 79.1234 96.111C78.5949 95.8928 78.0273 95.7854 77.4556 95.7955Z" fill="#333333"/>
<path d="M87.8271 109.602V94.0276H89.3941C89.6132 94.0038 89.8331 94.0645 90.0089 94.1973C90.1444 94.3633 90.2248 94.5675 90.2389 94.7814L90.4241 97.2102C90.8792 96.2224 91.5544 95.352 92.3979 94.6658C92.9537 94.2532 93.5947 93.9701 94.2739 93.8372C94.9531 93.7042 95.6534 93.7249 96.3237 93.8975C96.6627 93.9909 96.9883 94.1277 97.2922 94.3046L96.9386 96.3493C96.9198 96.4605 96.861 96.5611 96.7732 96.6319C96.6854 96.7027 96.5747 96.7388 96.4621 96.7335C96.236 96.7164 96.0136 96.6673 95.8014 96.5876C95.3962 96.4767 94.9767 96.4275 94.5569 96.4418C93.6855 96.4135 92.8344 96.7091 92.1679 97.2716C91.4505 97.9388 90.9004 98.766 90.5625 99.6858V109.602H87.8271Z" fill="#333333"/>
<path d="M104.391 89.1388C104.393 89.3961 104.338 89.6507 104.23 89.8842C104.124 90.1129 103.978 90.3211 103.799 90.4994C103.621 90.6783 103.409 90.8217 103.177 90.9219C102.94 91.0251 102.683 91.0776 102.424 91.076C102.167 91.0779 101.914 91.0254 101.679 90.9219C101.217 90.7162 100.847 90.3464 100.642 89.8841C100.538 89.6492 100.486 89.3951 100.489 89.1386C100.487 88.8773 100.539 88.6185 100.642 88.3781C100.74 88.1428 100.884 87.9289 101.064 87.7482C101.241 87.5703 101.449 87.4266 101.679 87.3245C101.914 87.2218 102.167 87.1696 102.424 87.1714C102.683 87.17 102.939 87.2221 103.177 87.3245C103.409 87.4251 103.62 87.5689 103.799 87.7482C103.98 87.9299 104.126 88.1435 104.23 88.3781C104.337 88.6173 104.392 88.8766 104.391 89.1388ZM103.776 94.0276V109.602H101.041V94.0276H103.776Z" fill="#333333"/>
<path d="M109.123 109.602V94.0276H110.752C110.923 94.0149 111.094 94.066 111.23 94.1711C111.366 94.2761 111.458 94.4279 111.49 94.597L111.705 96.2878C112.355 95.561 113.121 94.9477 113.972 94.4732C114.862 93.9986 115.859 93.7605 116.868 93.7819C117.639 93.7668 118.405 93.9107 119.119 94.2044C119.748 94.4713 120.306 94.8821 120.748 95.4038C121.2 95.9535 121.537 96.5886 121.739 97.2714C121.972 98.0546 122.086 98.8685 122.077 99.6856V109.602H119.341V99.6858C119.402 98.7047 119.117 97.7333 118.535 96.9416C118.225 96.6015 117.842 96.3368 117.415 96.1675C116.987 95.9983 116.527 95.929 116.069 95.9651C115.276 95.9607 114.495 96.162 113.803 96.5492C113.07 96.9637 112.413 97.499 111.859 98.1327V109.602L109.123 109.602Z" fill="#333333"/>
<path d="M131.941 93.7663C132.581 93.762 133.218 93.8369 133.84 93.9891C134.404 94.1279 134.945 94.3481 135.445 94.6429H139.67V95.6579C139.67 95.9953 139.455 96.2104 139.025 96.3034L137.258 96.5491C137.611 97.2382 137.791 98.0036 137.78 98.7781C137.79 99.4916 137.64 100.198 137.342 100.847C137.057 101.458 136.643 102.001 136.129 102.437C135.586 102.893 134.96 103.237 134.285 103.452C133.528 103.695 132.736 103.815 131.941 103.806C131.246 103.811 130.554 103.723 129.883 103.544C129.592 103.721 129.339 103.954 129.137 104.228C128.981 104.435 128.893 104.685 128.884 104.943C128.875 105.114 128.912 105.284 128.99 105.436C129.068 105.589 129.185 105.717 129.329 105.81C129.691 106.03 130.094 106.173 130.513 106.231C131.066 106.321 131.626 106.363 132.186 106.358H134.1C134.741 106.357 135.382 106.415 136.013 106.53C136.597 106.629 137.162 106.818 137.688 107.09C138.169 107.339 138.576 107.709 138.87 108.163C139.189 108.699 139.344 109.316 139.318 109.938C139.315 110.623 139.143 111.297 138.817 111.899C138.463 112.557 137.973 113.133 137.38 113.588C136.693 114.114 135.918 114.514 135.091 114.771C134.102 115.079 133.07 115.229 132.034 115.214C131.028 115.229 130.023 115.116 129.045 114.876C128.29 114.694 127.571 114.387 126.917 113.968C126.398 113.635 125.963 113.184 125.649 112.653C125.374 112.178 125.228 111.639 125.227 111.09C125.209 110.367 125.47 109.664 125.956 109.128C126.512 108.544 127.2 108.103 127.962 107.842C127.549 107.66 127.187 107.378 126.909 107.022C126.63 106.62 126.492 106.136 126.517 105.647C126.52 105.409 126.561 105.173 126.64 104.949C126.73 104.694 126.857 104.453 127.017 104.235C127.403 103.706 127.911 103.28 128.499 102.992C127.759 102.587 127.136 101.996 126.694 101.277C126.247 100.522 126.021 99.6562 126.041 98.7786C126.031 98.0654 126.181 97.3591 126.479 96.711C126.764 96.0996 127.181 95.5588 127.7 95.1275C128.253 94.6757 128.886 94.334 129.567 94.1208C130.335 93.8779 131.136 93.7583 131.941 93.7663ZM136.798 110.392C136.815 110.044 136.699 109.702 136.473 109.436C136.234 109.179 135.933 108.988 135.599 108.88C135.185 108.739 134.758 108.641 134.324 108.588C133.819 108.525 133.311 108.493 132.802 108.495H131.173C130.638 108.497 130.106 108.427 129.59 108.286C129.054 108.529 128.572 108.875 128.169 109.303C127.81 109.693 127.614 110.206 127.623 110.735C127.622 111.08 127.715 111.418 127.893 111.713C128.096 112.04 128.379 112.31 128.715 112.498C129.149 112.743 129.617 112.92 130.105 113.022C130.754 113.159 131.417 113.223 132.08 113.214C132.746 113.221 133.411 113.153 134.062 113.01C134.584 112.899 135.085 112.703 135.544 112.431C135.919 112.209 136.237 111.903 136.473 111.537C136.689 111.194 136.801 110.797 136.798 110.392ZM131.941 101.992C132.44 102.001 132.937 101.922 133.409 101.761C133.807 101.624 134.171 101.404 134.478 101.115C134.764 100.837 134.984 100.499 135.123 100.124C135.269 99.7173 135.342 99.2875 135.337 98.8551C135.358 98.4364 135.291 98.018 135.141 97.6265C134.992 97.2349 134.763 96.8787 134.468 96.5803C133.743 96.0312 132.858 95.734 131.948 95.734C131.039 95.734 130.154 96.0312 129.428 96.5803C129.135 96.879 128.906 97.2354 128.757 97.6269C128.608 98.0184 128.541 98.4366 128.562 98.8551C128.556 99.2882 128.631 99.7185 128.783 100.124C128.926 100.499 129.149 100.837 129.438 101.115C129.741 101.403 130.102 101.623 130.497 101.761C130.961 101.922 131.45 102 131.941 101.992Z" fill="#333333"/>
<path d="M154.068 109.848C153.55 109.882 153.03 109.808 152.542 109.631C152.054 109.453 151.608 109.177 151.232 108.818C150.524 107.998 150.168 106.932 150.242 105.851V96.319H148.367C148.215 96.3235 148.067 96.2712 147.952 96.1723C147.892 96.1139 147.846 96.0431 147.817 95.9648C147.787 95.8864 147.776 95.8026 147.783 95.7194V94.6273L150.333 94.3046L150.964 89.4928C150.98 89.3463 151.051 89.2115 151.163 89.1159C151.284 89.0159 151.437 88.964 151.593 88.9701H152.976V94.3358H157.432V96.319H152.976V105.666C152.954 105.929 152.985 106.193 153.067 106.444C153.149 106.695 153.28 106.927 153.453 107.126C153.614 107.286 153.806 107.41 154.018 107.492C154.229 107.574 154.455 107.612 154.682 107.603C154.935 107.609 155.187 107.569 155.427 107.488C155.616 107.421 155.799 107.336 155.972 107.234C156.126 107.142 156.256 107.057 156.364 106.981C156.445 106.914 156.544 106.874 156.648 106.865C156.729 106.872 156.807 106.9 156.875 106.945C156.942 106.991 156.996 107.054 157.032 107.127L157.831 108.434C157.337 108.889 156.757 109.241 156.126 109.471C155.468 109.721 154.771 109.848 154.068 109.848Z" fill="#333333"/>
<path d="M161.305 109.602V86.9557H164.04V96.1194C164.677 95.4333 165.425 94.8588 166.252 94.42C167.118 93.9813 168.078 93.7621 169.048 93.7816C169.82 93.7665 170.586 93.9103 171.3 94.2041C171.929 94.471 172.487 94.8818 172.928 95.4034C173.38 95.9533 173.717 96.5884 173.92 97.2711C174.152 98.0544 174.266 98.8682 174.257 99.6853V109.601H171.523V99.6858C171.584 98.7047 171.298 97.7333 170.716 96.9416C170.406 96.6015 170.023 96.3367 169.596 96.1674C169.168 95.9982 168.708 95.929 168.25 95.9651C167.457 95.9608 166.676 96.162 165.984 96.5492C165.251 96.9637 164.594 97.4991 164.04 98.1327V109.602L161.305 109.602Z" fill="#333333"/>
<path d="M185.044 93.7819C185.926 93.7727 186.802 93.9317 187.625 94.2504C188.395 94.5505 189.092 95.012 189.669 95.6039C190.265 96.2292 190.723 96.973 191.013 97.7869C191.35 98.7366 191.514 99.739 191.498 100.747C191.523 101.041 191.476 101.336 191.359 101.608C191.298 101.685 191.217 101.746 191.126 101.784C191.034 101.821 190.934 101.834 190.836 101.822H180.48C180.483 102.694 180.617 103.56 180.88 104.39C181.092 105.06 181.437 105.679 181.894 106.212C182.313 106.692 182.84 107.065 183.43 107.303C184.066 107.552 184.745 107.675 185.428 107.665C186.028 107.677 186.627 107.597 187.203 107.426C187.644 107.29 188.073 107.118 188.486 106.912C188.794 106.756 189.094 106.584 189.385 106.397C189.565 106.26 189.781 106.177 190.007 106.158C190.109 106.154 190.21 106.175 190.302 106.221C190.393 106.267 190.471 106.335 190.529 106.42L191.298 107.419C190.952 107.836 190.542 108.197 190.084 108.487C189.609 108.791 189.101 109.042 188.57 109.233C188.029 109.429 187.471 109.575 186.903 109.671C186.34 109.768 185.769 109.817 185.198 109.817C184.181 109.828 183.171 109.643 182.224 109.271C181.333 108.918 180.53 108.372 179.874 107.673C179.183 106.921 178.657 106.033 178.329 105.066C177.942 103.918 177.755 102.711 177.776 101.499C177.767 100.464 177.936 99.434 178.275 98.4554C178.586 97.5503 179.075 96.7167 179.712 96.0035C180.35 95.3021 181.131 94.7461 182.002 94.3733C182.964 93.9671 184 93.7657 185.044 93.7819ZM185.105 95.7955C184.535 95.7641 183.964 95.8495 183.427 96.0466C182.891 96.2437 182.4 96.5482 181.986 96.9416C181.178 97.8146 180.681 98.9307 180.573 100.116H189.039C189.046 99.524 188.958 98.9349 188.778 98.371C188.617 97.8675 188.355 97.4021 188.009 97.003C187.669 96.6169 187.246 96.3121 186.772 96.111C186.244 95.8928 185.677 95.7854 185.105 95.7955Z" fill="#333333"/>
<path d="M221.475 98.5938C221.495 100.131 221.229 101.659 220.691 103.099C220.203 104.398 219.45 105.581 218.479 106.573C217.506 107.551 216.338 108.312 215.052 108.81C213.641 109.353 212.139 109.621 210.627 109.602H202.392V87.5709H210.627C212.139 87.5517 213.64 87.8202 215.052 88.3622C216.339 88.8612 217.507 89.626 218.479 90.6067C219.448 91.6025 220.201 92.7881 220.691 94.089C221.229 95.5291 221.495 97.0566 221.475 98.5938ZM218.417 98.5938C218.436 97.3621 218.249 96.1359 217.864 94.9657C217.533 93.9656 217 93.0446 216.297 92.2599C215.615 91.5181 214.775 90.9399 213.839 90.5683C212.816 90.168 211.725 89.9697 210.627 89.9842H205.387V107.188H210.627C211.725 107.203 212.816 107.004 213.839 106.604C214.774 106.234 215.614 105.658 216.297 104.92C217.001 104.139 217.535 103.22 217.864 102.222C218.249 101.052 218.436 99.8255 218.417 98.5938Z" fill="#333333"/>
<path d="M228.942 89.1388C228.944 89.3961 228.889 89.6507 228.781 89.8843C228.675 90.1131 228.529 90.3214 228.35 90.4994C228.172 90.6785 227.96 90.8219 227.728 90.9219C227.491 91.025 227.235 91.0775 226.976 91.076C226.719 91.078 226.465 91.0255 226.23 90.9219C225.768 90.7154 225.399 90.3459 225.193 89.8841C225.09 89.6491 225.038 89.3951 225.04 89.1386C225.039 88.8773 225.091 88.6186 225.193 88.3781C225.291 88.1425 225.435 87.9286 225.616 87.7482C225.793 87.5701 226.001 87.4264 226.23 87.3245C226.465 87.2217 226.719 87.1695 226.976 87.1714C227.234 87.1701 227.491 87.2222 227.728 87.3245C227.961 87.4249 228.172 87.5687 228.35 87.7482C228.532 87.9297 228.678 88.1433 228.781 88.3781C228.888 88.6173 228.943 88.8766 228.942 89.1388ZM228.327 94.0276V109.602H225.592V94.0276H228.327Z" fill="#333333"/>
<path d="M238.914 93.7663C239.554 93.762 240.191 93.8368 240.812 93.9891C241.376 94.1279 241.917 94.3481 242.418 94.6429H246.643V95.658C246.643 95.9953 246.428 96.2104 245.998 96.3034L244.231 96.5492C244.585 97.2382 244.764 98.0036 244.753 98.7781C244.763 99.4916 244.613 100.198 244.315 100.847C244.03 101.458 243.616 102.001 243.101 102.437C242.559 102.893 241.932 103.237 241.257 103.452C240.5 103.695 239.709 103.815 238.914 103.806C238.219 103.811 237.527 103.723 236.855 103.544C236.565 103.722 236.312 103.954 236.11 104.228C235.954 104.435 235.865 104.684 235.856 104.943C235.848 105.114 235.885 105.284 235.963 105.436C236.041 105.589 236.158 105.717 236.302 105.81C236.663 106.03 237.066 106.173 237.486 106.231C238.039 106.321 238.599 106.363 239.16 106.358H241.073C241.715 106.357 242.355 106.415 242.986 106.53C243.569 106.629 244.134 106.818 244.661 107.09C245.142 107.339 245.549 107.709 245.844 108.163C246.162 108.699 246.317 109.316 246.29 109.938C246.287 110.623 246.116 111.296 245.791 111.899C245.436 112.557 244.946 113.132 244.354 113.588C243.666 114.114 242.891 114.514 242.064 114.771C241.075 115.079 240.043 115.229 239.007 115.214C238.001 115.229 236.996 115.116 236.018 114.876C235.263 114.693 234.544 114.387 233.89 113.968C233.371 113.635 232.937 113.184 232.623 112.653C232.347 112.178 232.201 111.639 232.2 111.09C232.182 110.366 232.444 109.664 232.93 109.128C233.485 108.544 234.173 108.103 234.935 107.842C234.522 107.659 234.161 107.377 233.882 107.022C233.603 106.619 233.466 106.136 233.491 105.647C233.493 105.409 233.534 105.173 233.613 104.949C233.703 104.693 233.83 104.453 233.99 104.235C234.171 103.987 234.38 103.76 234.612 103.559C234.874 103.334 235.163 103.143 235.473 102.991C234.732 102.587 234.11 101.996 233.668 101.277C233.22 100.522 232.994 99.6559 233.014 98.7783C233.004 98.0651 233.154 97.3587 233.452 96.7107C233.738 96.0993 234.155 95.5585 234.674 95.1272C235.226 94.6754 235.86 94.3337 236.54 94.1205C237.308 93.8777 238.109 93.7582 238.914 93.7663ZM243.77 110.392C243.787 110.044 243.671 109.702 243.447 109.436C243.207 109.179 242.906 108.988 242.572 108.88C242.158 108.738 241.73 108.641 241.296 108.588C240.791 108.525 240.283 108.493 239.775 108.495H238.146C237.612 108.497 237.079 108.427 236.563 108.286C236.027 108.529 235.544 108.875 235.142 109.303C234.782 109.693 234.587 110.206 234.596 110.735C234.595 111.08 234.688 111.418 234.866 111.713C235.069 112.04 235.352 112.31 235.688 112.498C236.121 112.743 236.59 112.92 237.078 113.022C237.727 113.159 238.389 113.223 239.053 113.214C239.719 113.221 240.384 113.153 241.035 113.01C241.557 112.899 242.058 112.703 242.517 112.431C242.892 112.209 243.21 111.903 243.446 111.537C243.661 111.194 243.774 110.797 243.77 110.392ZM238.914 101.992C239.413 102.001 239.909 101.922 240.381 101.761C240.779 101.624 241.144 101.404 241.45 101.115C241.737 100.838 241.957 100.499 242.095 100.124C242.242 99.7174 242.315 99.2876 242.311 98.8551C242.331 98.4364 242.265 98.018 242.115 97.6265C241.966 97.2349 241.736 96.8787 241.442 96.5803C240.717 96.0312 239.832 95.734 238.922 95.734C238.012 95.734 237.128 96.0312 236.402 96.5803C236.108 96.8789 235.879 97.2351 235.73 97.6267C235.581 98.0182 235.514 98.4365 235.534 98.8551C235.529 99.2882 235.605 99.7186 235.757 100.124C235.899 100.499 236.122 100.837 236.41 101.115C236.714 101.403 237.076 101.623 237.471 101.761C237.935 101.922 238.423 102 238.914 101.992Z" fill="#333333"/>
<path d="M253.557 89.1388C253.559 89.3961 253.504 89.6507 253.396 89.8843C253.29 90.1131 253.144 90.3213 252.965 90.4994C252.786 90.6785 252.575 90.8219 252.343 90.9219C252.105 91.025 251.849 91.0775 251.59 91.076C251.334 91.078 251.079 91.0255 250.845 90.9219C250.383 90.7154 250.014 90.3459 249.807 89.8841C249.704 89.6491 249.652 89.3951 249.654 89.1386C249.653 88.8773 249.705 88.6186 249.807 88.3781C249.906 88.1425 250.05 87.9286 250.231 87.7482C250.407 87.5701 250.615 87.4264 250.845 87.3245C251.08 87.2217 251.334 87.1695 251.59 87.1714C251.849 87.1701 252.105 87.2222 252.343 87.3245C252.575 87.4249 252.786 87.5687 252.965 87.7482C253.146 87.9297 253.292 88.1433 253.396 88.3781C253.503 88.6173 253.558 88.8766 253.557 89.1388ZM252.942 94.0276V109.602H250.207V94.0276H252.942Z" fill="#333333"/>
<path d="M263.007 109.848C262.489 109.882 261.97 109.808 261.482 109.631C260.994 109.453 260.548 109.177 260.172 108.818C259.464 107.998 259.108 106.932 259.182 105.851V96.319H257.307C257.155 96.3235 257.007 96.2712 256.892 96.1723C256.832 96.1139 256.786 96.0431 256.756 95.9648C256.727 95.8864 256.716 95.8026 256.723 95.7194V94.6273L259.273 94.3046L259.903 89.4928C259.92 89.3463 259.991 89.2115 260.103 89.1159C260.224 89.0159 260.377 88.964 260.533 88.9701H261.916V94.3358H266.373V96.319H261.916V105.666C261.894 105.929 261.925 106.193 262.007 106.444C262.089 106.695 262.22 106.927 262.392 107.126C262.554 107.286 262.746 107.41 262.958 107.492C263.169 107.574 263.395 107.612 263.622 107.603C263.875 107.609 264.127 107.569 264.367 107.488C264.556 107.421 264.739 107.336 264.912 107.234C265.066 107.142 265.196 107.057 265.304 106.981C265.385 106.914 265.484 106.874 265.589 106.865C265.67 106.872 265.748 106.9 265.815 106.945C265.882 106.991 265.936 107.054 265.973 107.127L266.772 108.434C266.277 108.889 265.697 109.241 265.066 109.471C264.409 109.721 263.711 109.848 263.007 109.848Z" fill="#333333"/>
<path d="M281.675 109.602H280.462C280.24 109.611 280.019 109.569 279.816 109.479C279.725 109.423 279.648 109.347 279.592 109.256C279.536 109.166 279.502 109.063 279.493 108.956L279.186 107.512C278.776 107.88 278.377 108.21 277.987 108.503C277.605 108.791 277.193 109.038 276.758 109.241C276.318 109.444 275.857 109.596 275.383 109.695C274.849 109.801 274.306 109.852 273.762 109.848C273.186 109.852 272.613 109.767 272.063 109.594C271.557 109.437 271.089 109.177 270.688 108.83C270.287 108.475 269.97 108.035 269.759 107.542C269.516 106.959 269.398 106.33 269.413 105.698C269.417 105.069 269.592 104.453 269.92 103.917C270.328 103.28 270.891 102.757 271.557 102.398C272.483 101.89 273.48 101.523 274.515 101.309C275.985 101.002 277.484 100.86 278.986 100.886V99.6634C279.056 98.6805 278.782 97.7038 278.21 96.9017C277.924 96.5802 277.568 96.3286 277.17 96.1663C276.771 96.004 276.341 95.9353 275.912 95.9655C275.341 95.9504 274.771 96.0362 274.23 96.219C273.817 96.3672 273.42 96.5577 273.047 96.7875C272.714 96.9974 272.427 97.187 272.186 97.356C271.981 97.5131 271.731 97.6017 271.472 97.6095C271.3 97.6132 271.13 97.5621 270.988 97.4637C270.852 97.3693 270.739 97.2459 270.658 97.1024L270.166 96.2259C270.967 95.4354 271.911 94.8041 272.947 94.3655C273.997 93.9449 275.119 93.7358 276.25 93.7503C277.044 93.736 277.834 93.8826 278.57 94.1812C279.22 94.4501 279.803 94.8596 280.276 95.3805C280.752 95.9198 281.108 96.5539 281.321 97.2409C281.564 98.0167 281.683 98.8258 281.674 99.6386L281.675 109.602ZM274.577 107.926C275.021 107.93 275.465 107.881 275.898 107.78C276.289 107.686 276.668 107.547 277.027 107.365C277.386 107.182 277.726 106.963 278.041 106.712C278.377 106.443 278.693 106.15 278.986 105.835V102.622C277.911 102.608 276.836 102.688 275.775 102.862C275.035 102.98 274.312 103.19 273.624 103.488C273.15 103.684 272.735 103.998 272.418 104.4C272.17 104.742 272.038 105.154 272.041 105.576C272.032 105.941 272.1 106.305 272.241 106.642C272.362 106.925 272.546 107.177 272.779 107.378C273.012 107.573 273.285 107.715 273.578 107.795C273.903 107.885 274.239 107.929 274.577 107.926Z" fill="#333333"/>
<path d="M289.389 86.9557V109.602H286.653V86.9557H289.389Z" fill="#333333"/>
<path d="M303.748 87.6708C303.919 87.7766 304.068 87.9149 304.186 88.0779L316.939 104.682C316.909 104.416 316.888 104.158 316.878 103.906C316.867 103.655 316.862 103.411 316.862 103.176V87.571H319.475V109.602H317.969C317.765 109.609 317.562 109.567 317.377 109.479C317.193 109.376 317.033 109.234 316.909 109.064L304.17 92.4751C304.19 92.7309 304.206 92.9818 304.216 93.2279C304.226 93.4739 304.232 93.6995 304.232 93.9046V109.602H301.62V87.5709H303.155C303.358 87.5587 303.561 87.5929 303.748 87.6708Z" fill="#333333"/>
<path d="M330.613 93.7819C331.496 93.7727 332.372 93.9317 333.195 94.2504C333.964 94.5505 334.661 95.012 335.238 95.6039C335.834 96.2292 336.292 96.973 336.582 97.7869C336.919 98.7366 337.084 99.739 337.067 100.747C337.092 101.041 337.045 101.336 336.929 101.608C336.867 101.685 336.787 101.746 336.695 101.783C336.604 101.821 336.504 101.834 336.406 101.822H326.05C326.052 102.694 326.187 103.56 326.45 104.39C326.662 105.06 327.007 105.679 327.464 106.212C327.883 106.692 328.409 107.065 329 107.303C329.636 107.552 330.315 107.675 330.998 107.665C331.598 107.677 332.197 107.597 332.773 107.426C333.213 107.29 333.643 107.118 334.055 106.912C334.364 106.756 334.664 106.584 334.954 106.397C335.135 106.26 335.351 106.177 335.577 106.158C335.679 106.154 335.78 106.175 335.872 106.221C335.963 106.267 336.041 106.335 336.099 106.42L336.868 107.419C336.521 107.836 336.112 108.197 335.654 108.487C335.178 108.792 334.671 109.042 334.14 109.233C333.598 109.429 333.04 109.575 332.473 109.671C331.91 109.768 331.339 109.817 330.768 109.817C329.75 109.828 328.741 109.643 327.794 109.271C326.902 108.918 326.1 108.372 325.443 107.673C324.753 106.921 324.227 106.033 323.898 105.066C323.512 103.918 323.325 102.711 323.346 101.499C323.337 100.464 323.506 99.434 323.845 98.4554C324.156 97.5503 324.644 96.7166 325.282 96.0035C325.919 95.3022 326.7 94.7462 327.571 94.3733C328.533 93.9671 329.569 93.7656 330.613 93.7819ZM330.675 95.7955C330.104 95.7641 329.533 95.8495 328.997 96.0466C328.46 96.2437 327.97 96.5482 327.555 96.9416C326.747 97.8146 326.25 98.9307 326.142 100.116H334.609C334.615 99.524 334.527 98.9349 334.347 98.371C334.186 97.8675 333.925 97.4021 333.579 97.003C333.238 96.6168 332.815 96.3121 332.341 96.111C331.813 95.8928 331.246 95.7854 330.675 95.7955Z" fill="#333333"/>
<path d="M344.504 101.622L339.264 94.0276H341.892C342.063 94.0144 342.234 94.0521 342.383 94.1359C342.496 94.2184 342.59 94.3229 342.66 94.443L346.47 100.286C346.569 99.9839 346.703 99.695 346.87 99.4245L350.219 94.5047C350.307 94.3773 350.41 94.2612 350.527 94.159C350.634 94.0698 350.771 94.0231 350.91 94.0275H353.43L348.191 101.469L353.646 109.602H351.018C350.825 109.613 350.635 109.55 350.488 109.425C350.363 109.312 350.257 109.18 350.173 109.034L346.255 102.93C346.189 103.211 346.08 103.481 345.932 103.729L342.306 109.034C342.206 109.173 342.096 109.304 341.976 109.426C341.911 109.486 341.835 109.533 341.752 109.564C341.669 109.594 341.58 109.607 341.492 109.602H339.049L344.504 101.622Z" fill="#333333"/>
<path d="M361.59 109.848C361.072 109.882 360.553 109.808 360.065 109.631C359.577 109.453 359.131 109.177 358.755 108.818C358.047 107.998 357.691 106.932 357.765 105.851V96.319H355.89C355.738 96.3235 355.59 96.2712 355.475 96.1723C355.415 96.1139 355.369 96.0431 355.339 95.9648C355.31 95.8864 355.299 95.8026 355.306 95.7194V94.6273L357.856 94.3046L358.486 89.4928C358.503 89.3463 358.574 89.2115 358.686 89.1159C358.807 89.0159 358.96 88.964 359.116 88.9701H360.499V94.3358H364.955V96.319H360.499V105.666C360.478 105.929 360.509 106.193 360.59 106.444C360.672 106.695 360.803 106.927 360.976 107.126C361.137 107.286 361.33 107.41 361.541 107.492C361.753 107.574 361.979 107.612 362.205 107.603C362.459 107.609 362.711 107.569 362.95 107.488C363.14 107.421 363.322 107.336 363.496 107.234C363.65 107.142 363.78 107.057 363.888 106.981C363.968 106.914 364.068 106.874 364.172 106.865C364.253 106.872 364.331 106.9 364.398 106.945C364.466 106.991 364.52 107.054 364.556 107.127L365.355 108.434C364.86 108.889 364.281 109.241 363.65 109.471C362.992 109.721 362.294 109.848 361.59 109.848Z" fill="#333333"/>
<path d="M127.279 66.7998V60.7676C127.202 58.9115 127.771 57.0862 128.889 55.6027C129.963 54.1568 131.531 52.8345 132.523 51.4299C133.065 50.7234 133.316 49.8364 133.225 48.9506V44.323C133.225 43.4968 132.894 43.0837 132.276 43.0837C131.657 43.0837 131.366 43.5385 131.366 44.3645V47.8352H127.402V44.7774C127.402 41.1002 128.022 39.1995 132.317 39.1995C136.24 39.1995 137.189 40.8109 137.189 44.1993V49.0331C137.273 50.571 136.788 52.0859 135.827 53.2889C134.918 54.4873 133.39 55.9332 132.482 57.1728C131.822 57.9095 131.468 58.8695 131.49 59.8581V63.1223H137.189V66.7995L127.279 66.7998Z" fill="white"/>
<path d="M148.997 61.5937C148.997 65.0646 147.304 67.0066 144 67.0066C141.523 67.0066 139.046 65.932 139.046 61.718V59.7347H143.01V61.9243C143.01 62.7505 143.299 63.1636 143.918 63.1636C144.538 63.1636 144.869 62.7505 144.869 61.9243V54.446C144.869 53.4957 144.456 53.2067 143.918 53.2067C143.722 53.2099 143.53 53.2604 143.357 53.3538C143.185 53.4473 143.038 53.581 142.928 53.7435H139.046L139.541 39.3652H148.378V43.0421H143.134L142.845 50.6034H143.01C143.321 50.2758 143.701 50.0209 144.122 49.8566C144.543 49.6924 144.996 49.6229 145.446 49.653C147.263 49.653 148.997 50.5621 148.997 53.9913V61.5937Z" fill="white"/>
</svg>
